/* XPM */
static char *d2e1ea24c34a4d4cc1952059fd2e58cc65gm93Ccis9gJGff[] = {
/* columns rows colors chars-per-pixel */
"64 64 161 2 ",
"   c #15141C",
".  c #18171D",
"X  c #15181D",
"o  c #1A191E",
"O  c #141622",
"+  c #171C21",
"@  c #1C1C23",
"#  c #1D1E29",
"$  c #201F25",
"%  c #1E2125",
"&  c #1E2229",
"*  c #222225",
"=  c #242925",
"-  c #2A2A24",
";  c #24252B",
":  c #29272C",
">  c #25292D",
",  c #2A2B2D",
"<  c #2F332B",
"1  c #313127",
"2  c #32332D",
"3  c #3B3B2E",
"4  c #232731",
"5  c #262B31",
"6  c #2B2D32",
"7  c #2E2E38",
"8  c #312F34",
"9  c #2D3235",
"0  c #2D3239",
"q  c #333335",
"w  c #363836",
"e  c #3A3B35",
"r  c #33353A",
"t  c #38373C",
"y  c #353A3D",
"u  c #3B3B3D",
"i  c #403E3F",
"p  c #37403F",
"a  c #3D403E",
"s  c #404036",
"d  c #41423E",
"f  c #46483B",
"g  c #363640",
"h  c #373C40",
"j  c #3B3D42",
"k  c #403F44",
"l  c #3D4145",
"z  c #3F4448",
"x  c #434445",
"c  c #484745",
"v  c #444946",
"b  c #4A4A46",
"n  c #434549",
"m  c #49474B",
"M  c #454A4B",
"N  c #4B4C4C",
"B  c #504F4D",
"V  c #4E5045",
"C  c #47504C",
"Z  c #4C524E",
"A  c #535347",
"S  c #52534D",
"D  c #59594E",
"F  c #4C4D51",
"G  c #514F52",
"H  c #4D5352",
"J  c #4F5853",
"K  c #535453",
"L  c #595655",
"P  c #545A54",
"I  c #5A5C55",
"U  c #545559",
"Y  c #59575B",
"T  c #555B59",
"R  c #5B5D5B",
"E  c #605F5B",
"W  c #5C6155",
"Q  c #5D625B",
"!  c #626356",
"~  c #62645D",
"^  c #64695D",
"/  c #6A6B5E",
"(  c #5D5D61",
")  c #605F64",
"_  c #5E6260",
"`  c #666664",
"'  c #676767",
"]  c #656565",
"[  c #646562",
"{  c #6B6766",
"}  c #676863",
"|  c #666962",
" . c #686961",
".. c #686963",
"X. c #696A62",
"o. c #6A6C61",
"O. c #6C6C60",
"+. c #6D6D63",
"@. c #686964",
"#. c #696864",
"$. c #6A6965",
"%. c #696A64",
"&. c #696A65",
"*. c #696967",
"=. c #6B6C67",
"-. c #6C6C64",
";. c #6F6F65",
":. c #6C6D67",
">. c #6A6B63",
",. c #656568",
"<. c #68666B",
"1. c #676968",
"2. c #6A6A68",
"3. c #6D6E68",
"4. c #6E6F69",
"5. c #6E6F6A",
"6. c #6F6F6F",
"7. c #6B6C6B",
"8. c #6F7165",
"9. c #6D7069",
"0. c #727363",
"q. c #717264",
"w. c #737367",
"e. c #737464",
"r. c #737466",
"t. c #707068",
"y. c #727268",
"u. c #73736B",
"i. c #75756B",
"p. c #77776B",
"a. c #75756D",
"s. c #73746B",
"d. c #77786A",
"f. c #78796B",
"g. c #79796D",
"h. c #797A6D",
"j. c gray45",
"k. c #767674",
"l. c #737372",
"z. c #777B72",
"x. c #787870",
"c. c #7A7A72",
"v. c #7E7E76",
"b. c #7A7B73",
"n. c #7F7E79",
"m. c #7F7F7D",
"M. c #828276",
"N. c #858676",
"B. c #838377",
"V. c #808078",
"C. c #84847A",
"Z. c #87877F",
"A. c #818179",
"S. c #8B8C7E",
"D. c #888783",
"F. c #8D8D87",
"G. c #8B8B81",
"H. c #8F9082",
"J. c #97978F",
"K. c #93948C",
"L. c #A1A292",
/* pixels */
"- e b N x B B V c G G k L L c * * Y x c G B L L b x i L Z b k * 8 * t i 8 L B B : t E E i 8 t 8 $ S L S K m x u 8 8 q 6 m Y k r ",
"2 a.J.h.p.t.i.t.i.~ { n.~ E ~ e B F.M.p.x.t.~ -.-.w.N.w.~ M.Z.A E h.S D E V b B V E E B L / +.S i N.L.e./ 0.p.p.p.w.O.g.p.u.v.3 ",
"{ D.{ ~ [ E E E ~ ~ Y E E L E 8 e m.^ L ~ { ^ ^ ` ~ I S I L { S S K n k k j k j k g k j i k G t i F.+.E ~ ~ ~ ~  .*.3.~ I I { q ",
"] j.[ [ E R ~  .E { ] E Y E ) : , 6.] [ E E [ { X.{  . .N L 7.N k B k t j k k k k j t t t i G t c k.E E S L ~ Q E { ` ` [ R ] : ",
"L ;.X.| ^ I / ~ ~  .~ ~ E I [ d x L Q R L ~ ~ ~  .X.^ ~ *.S R b d S x u t k x t j j j k t e d a b I I S D R ^ ~ ^ ~ ;.X.E [ ` N ",
"b ` *.=.^ X.~ X.X. . .X.[ E [ u w Y R E ^ ` ^ ^ ` ^ X.X.) ~ G U u F x k k k k k j j j g j x u l N ~ Y R ` ~ ~ 9.*.` ` | { E R S ",
"j { ` ` ] [  .~ [ ~ { Y [ ) ) 8 9 7.( Y ` [ ~ Q ` ` ` *.` 7.] x u U k n x k j j j j u j l t 0 J c L Q ~ ~ ^ X.| X.^ ^ ' ' R E b ",
"d R [ 3. .~ ~ ~ ~ ^ ~  .I I R c u ' R ^ Q ~ ~ ^ ~ ^ ^ ^ ^ R ` v j F n n x n k j j e l u t x l 5 N R ^ [ ^ [ &.%.` ^ [ ^ ` [ R N ",
"t _ R *.X.^ ~ ^ ~ ^ ^ Q Q T T F z T ( T _ Q ^ [ ^ ^ ^ | _ Q T C r M M n z z l z l l l l l l l p z T Q _ ^ | ^ o.^ Q _ _ Q _ Q z ",
"6 R R Q / ~ ^ Q ~ ~ Q Q P K H 9 z T ( ( Q Q Q Q | ^ Q Q Q T ( z 9 l z z z l l l l l l h l l l 0 z J T Q ^ ^ ^ | Q Q Q _ Q P W l ",
"q ( R Q [ Q | [ R Q R Q P H U 5 z T T T P P Q _ Q Q Q Q Q W T M r z h h l h z z z z l l l p l 0 z J T ^ T ^ Q ^ ^ W J W Q P T z ",
"0 _ K P R Q _ T R _ Q Q T H C 0 z z H J P P W Q Q Q P J J H H z 9 h r h h l l l l l h l l p l p 5 ^ T T T T _ Q Q W Q W P J C w ",
"u Q P P P P Q Q T T Z Z H H H r h U J J W J P P Q P W J P J J a 9 h r y y h l y l l l l h h z 0 z C J T T Q P Q W P T K H H H x ",
"x U K C T H T H _ Q P P v v H 0 0 H J H J P P T T P J Z C M v 9 0 h h y r h l l h h l l 0 l l 5 z J J T T H T T T P K H M C T n ",
"q U ,.H C C H F H F M C H T T 5 4 M H J J H H H H H C C H M j 6 9 y h l l l l l l z z z l z z 0 9 z z T T J J H z C H M F H H 9 ",
"6 6 6 9 5 5 4 5 4 4 > & 5 0 0 # O 4 5 6 > & > 5 4 > > > ; ; 6 # + % % & & & & & & & & 5 4 4 5 + + 0 p > l l 9 y 0 & ; 6 9 6 6 & ",
"@ , x N U N G G G B m K K u , * , 8 x r x Y Y U n 8 * 8 k , 8 $ . n Y t n m { m $ $ o $ n n m q % 0 l H y 6 t r 8 t t 8 j t 8 r ",
"K L x N x x n x x t j u k Y { : w a.[ S K b c B L L K R L R i e 2 X.x.g.v.a.*.M.u.~ D ~ a.X.s.| < J Q C 5.7.K D S B B I E E ) B ",
"N Y c c k u j t t j j r u t U r N E m m u x x k x k u i U G Y 8 E K.` ~ E E I L ~ ~ X.~ L S *.~ t ( z u m n k r t k t t t j m k ",
"e N N u x t j x k j k j u t Y $ j Y m n n k n k k k k x u n N r U j.{ E R E R E E I R Y R Y { U y U l n k k j j t j j t k k k n ",
"x K b i u x t j k j j n n g U : i Y b x m b b c x d i d d x c 2 N g.~ ^ ^  .` I E ~ I ~ Q L [ K t M x l x x h j k u t t t k x i ",
"e S u j j t j u j n j j t e U : , G F m B B x N b x x x x n x , i 9.R ^ ^ `  . .~ ~ E ~ Q ^ ^ x x n y j y j n j j j j j k k k 8 ",
"q m t j j t l n j n j t t t Y 6 $ U m F F G G m n c k N N n F ; u ' ` [ ~ X. . . .^ ^ { ' ' | l e x l y j u j l l j q q j u m c ",
"t x j k j n j j n j y y t t U * 8 G G N B b c N c c c c c m c e q _ Y ~ E ` ~ ~  .^ ` X.^ | | p , j n j j l l z j y q r k j n Y ",
"N x t l c l l x j t j t r j n 6 y M F F C N v N N x c x M x x y > P Q Q Q Q Q Q ^ | | ^ _ | _ 0 & j z l l z h l j h j j j h z F ",
"q n u y z z l l j y y y g r h 0 9 M M z z v N v c c a v x x z l > P J J T Q Q Q o.o._ Q Q _ W < ; h j l h h h l j j h h h h n j ",
"< l y y y j l j h h y r h r y 9 0 z y y z v v v v v N v v w l u 9 J J J P P Q ^ | Q Q ^ Q W J z 0 l h h g y y l j j j l j j h g ",
"y z y l y y h h y y y r y r r 5 5 p p 0 w l l v v v x v p w y a 9 Z J T W J J Q Q Q Q Q Q T J p r h h h r h p l z j j l h g h h ",
"0 M y h j h r y h r r g y 0 h 6 p p h g 0 l z y p a l l q q y a y C C C J C J P W S W P Z P L = 9 y y y 0 y p 0 l l l l h r l l ",
"6 M l y q y h j g r q 7 7 y h ; X y h h p y h j y y u h y y t y 0 C F F z J C J Z Z C v Z Z Z t > 9 y y 0 y y l h l h g g g l l ",
"5 y y q 6 q g h y y h r 0 h h ; % M z h l z j r M M j x j j 6 * 5 z M F C C z p y 9 r u q l U 6 o ; > 6 0 y y l h l h r g j C F ",
"@ % @ % 6 4 @ ; & 6 7 y 0 # @ O + % ; 4 & ; > 5 ; ; ; @ % % @   . & 4 6 5 = = % @ > 6 j r @ $ O + + . * 5 5 & 4 & % 6 r , > 6 # ",
"* , u t : 2 , , 8 q q i k i t o : 8 u G ) { u 8 G Y R k x k 2 * * y u b x t t k m j g t 8 q k $ . j n j r t u q q i i q t t 8 8 ",
"1 G.~ X.^ E ! D A D E E I g.u.1 D H.b.w.! e.S.^ g.q.O.g.E / S.~ f i.{ I ^ u.L E E Y L L ~ -.n.b e A ~ ! / -.~ ! ! I ! ~ u.b.X.e ",
"2 3.b c f S Z c b b b b b b u.8 b a.L E E R ~ Y R ~ Y E ~ E 5.Y N U n n j U m x k k k k t t ) j w R S N c c c c c N c B x x s.R ",
"; ] m m K N N H B B G N m b ,.x x j.L K K K E [ [ E [ E ` ) 5.U N K x j m j k j k r j j j j G : * Y N N n n n n c m N k b N G [ ",
"K U c S L b S P S S S B Z Z L e x *.I I R ~ ~ ~ ^ ~ ` ~ ~ ` ~ N c K c N u k j j j j k g e t l u x Q N x v c i c x c m m c N K B ",
"S E S S A I I D L D S S S b I w c { I E ` ~ X.X.{ ~ *.^ ~ ` E c M F F n k k k k j k j j j j j q j T N c n x u u k N m b N m N k ",
"K ~ K L L P S I P L L S N P S > S S I ^ ~ ^ ^ X.^ *.~ E  .I ^ x q N U n k j n j k k j j h j j 6 q K N N x x b d i d c b b m N u ",
"m U L L L W I P I W P L S N K 9 w Y R R ` ~ { X.{ ~  .X.) [ E d t F x x n n k n k j j j j j l h j n N n c N b c d c m m N c m t ",
"N L K L I Q P W W W J J H C H l t U P T Q X.~ ;.| X.X.` ~ Q Y x y l z x n k n n j n n h h h l z N N c n V v a C c b n c c x m j ",
"c R B K L I W P J W J T T M n h y Z K T ` Q X.~ X.| ` ~ Q R P j y z j h j j j k n n n j l g l z h l x n v v v C x N M x n l x q ",
"m G S U C P P P P S J J J C M z u T T Q R Q ` ` ` [ Q Q Y Y T M y l r 6 0 y y l n k k j h y h l 6 l z n M M z z x n M x n n j 7 ",
"t K N K Z J W C P Z J J H J F & y C T H T P P Q Q Q Q T R K H l h j h h r h j h j n j h l r h l 6 j l l M M J z l z z l n l n y ",
"a Y x b K J Z S J J C z C z z z l z H J H J K L P P P P P Z C l l j g h y h g y z j h y g y l r y z l j z z z z l l l z x l x u ",
"v S N b v b Z C C C C C z z z l p J z U M C Z Z H K K H H C M l 9 z l h h h h l j z j h h h l 5 0 l l l z z z z z z l z z l n j ",
", Y H M v l v Z C z C z z C z 5 0 J H H U H H C N H K H U M x r & l z z z z z M n z z z z l j 4 6 h j z z z z z z z n j n n M y ",
"> 6 9 q 9 9 0 l l p l p y y 0 + & 5 6 0 0 9 , 9 6 6 5 > 5 > : * % & 4 6 4 5 5 9 7 0 4 4 5 9 0 + % 5 > > 5 5 0 5 0 4 4 7 g 7 8 > ",
"* 6 j j t t t q 8 t q u m j r @ 8 m B G : . $ $ k ) k t k ) m o * m k x : : r m m F m u q k , * > l l P K S Z S N N K U U n m : ",
"2 o.~  .A V V D D A E t.L D E - -.G.p.+.~ D D +.S.O.w.O.! p.g.i f b E ^ I V I D S D I ^ ~ u.a.i < z.9.^ ^ ~ ^ ! W ! ! ! / t.h.S ",
"i [ x t u u j t u u u w u k K q ^ u.~ X.B.B.c.g.O.E / O.E ! S.D e A.R *.I B b c c N c b b b { S c h.I I | R S S S D S S ~ a.B.D ",
"c Y u r 8 j j k t t t k t k L q ~ { R E E E / E ~ E E E Y E { L G ] N c c m F N b N N m N N ( N < [ Y P Y Y F F U Y Y L E [ { c ",
"x N u q u e j t t t q t e u L c K ;.~ ` ~ ^ ~ E E / E E E E *.N c R x N x i c b N N G N b N U b w Q L I Y K N G K K L L L I ] B ",
"j G u x j j x l u y j u j t H x K 3.~ R I E I Q E E -.~ R L ` f u S b d i x b c b B b B B m x q 2  .S L L L K B U Y L L S I ~ V ",
"u m u j x k l j u l u u t u x q c [ R E R ~ Q Q E E ~ { ~ R L u t K x c x N x n x c G G n N G = k x.K G U L U L K K K K Y Y E x ",
"F n k j j j j j h l j t l j t : i E I I E I I W ~ !  .^ Q L S 2 e S d x c c x c n x n x N N N t q ~ L G B L S K G K U L U K Y k ",
"n c u l l j u j j u y u y l l % 9 R P T Q I W W W Q Q | Q K H < w b x x f x d c c d x b x x N t w K K Z N K K S B S G K G B L G ",
"t l j j l z l l y h l l l l l > % K P K P Q P P J Q Q Q P K C , t c x d u d i d x d u i c x c u u Z N N S G Z K N N F N m b G t ",
"r l l j j l h j l j y y l l l 0 w H K T Z Z S P P W P P H N C y q e l a u d u e e m x d x x c q u b M N N N N Z F K N N N N B 8 ",
"y z h j u y y h r y p j y y y w > H H H M Z W J J J H J C M M y l y w p a a a u a d i i i x x 6 t n x x x M M x M N n N G N G t ",
"j l r y j r r r h r y h y y z y % H J C J J J C J Z C C M l v y a w q e a e a p d u d d i i u j w M v v M N M v x l x n n n K t ",
"l F h r y r r g r r h h 0 z M 0 % n J H J C v J C C C v z x M a a x y t e w u e u k i i u x x $ 6 x v M v n v M v n c n x m N q ",
"n U n j h g j j l l j l F U C 4 & r M z y 0 q u x n C N m F N r % u F m x u d c t F F m k x m @ 6 n M M M M M n M M m k n n k q ",
": y 6 6 q 6 : > > 5 5 9 9 % & @ @ $ @ q j 9 ; @ ; % , 6 : 4 :   + % ; $ : ; ; : : 6 6 : 6 : 4 $ + 4 ; 6 0 6 6 : 6 & 4 : $ ; ; O "
};
